  0
SECTION
  2
HEADER
  9
$ACADVER
  1
AC1014
  9
$ACADMAINTVER
 70
     9
  9
$DWGCODEPAGE
  3
ANSI_1252
  9
$INSBASE
 10
0.0
 20
0.0
 30
0.0
  9
$EXTMIN
 10
-10.0
 20
-10.0
 30
0.0
  9
$EXTMAX
 10
10.0
 20
10.0
 30
0.0
  9
$LIMMIN
 10
0.0
 20
0.0
  9
$LIMMAX
 10
420.0
 20
297.0
  9
$ORTHOMODE
 70
     1
  9
$REGENMODE
 70
     1
  9
$FILLMODE
 70
     1
  9
$QTEXTMODE
 70
     0
  9
$MIRRTEXT
 70
     0
  9
$DRAGMODE
 70
     2
  9
$LTSCALE
 40
1.0
  9
$OSMODE
 70
   511
  9
$ATTMODE
 70
     1
  9
$TEXTSIZE
 40
2.5
  9
$TRACEWID
 40
1.0
  9
$TEXTSTYLE
  7
STANDARD
  9
$CLAYER
  8
SECTION2
  9
$CELTYPE
  6
BYLAYER
  9
$CECOLOR
 62
   256
  9
$CELTSCALE
 40
1.0
  9
$DELOBJ
 70
     1
  9
$DISPSILH
 70
     0
  9
$DIMSCALE
 40
1.0
  9
$DIMASZ
 40
2.5
  9
$DIMEXO
 40
0.625
  9
$DIMDLI
 40
3.75
  9
$DIMRND
 40
0.0
  9
$DIMDLE
 40
0.0
  9
$DIMEXE
 40
1.25
  9
$DIMTP
 40
0.0
  9
$DIMTM
 40
0.0
  9
$DIMTXT
 40
2.5
  9
$DIMCEN
 40
2.5
  9
$DIMTSZ
 40
0.0
  9
$DIMTOL
 70
     0
  9
$DIMLIM
 70
     0
  9
$DIMTIH
 70
     0
  9
$DIMTOH
 70
     0
  9
$DIMSE1
 70
     0
  9
$DIMSE2
 70
     0
  9
$DIMTAD
 70
     1
  9
$DIMZIN
 70
     8
  9
$DIMBLK
  1

  9
$DIMASO
 70
     1
  9
$DIMSHO
 70
     1
  9
$DIMPOST
  1

  9
$DIMAPOST
  1

  9
$DIMALT
 70
     0
  9
$DIMALTD
 70
     3
  9
$DIMALTF
 40
0.03937007874016
  9
$DIMLFAC
 40
1.0
  9
$DIMTOFL
 70
     1
  9
$DIMTVP
 40
0.0
  9
$DIMTIX
 70
     0
  9
$DIMSOXD
 70
     0
  9
$DIMSAH
 70
     0
  9
$DIMBLK1
  1

  9
$DIMBLK2
  1

  9
$DIMSTYLE
  2
ISO-25
  9
$DIMCLRD
 70
     0
  9
$DIMCLRE
 70
     0
  9
$DIMCLRT
 70
     0
  9
$DIMTFAC
 40
1.0
  9
$DIMGAP
 40
0.625
  9
$DIMJUST
 70
     0
  9
$DIMSD1
 70
     0
  9
$DIMSD2
 70
     0
  9
$DIMTOLJ
 70
     0
  9
$DIMTZIN
 70
     8
  9
$DIMALTZ
 70
     0
  9
$DIMALTTZ
 70
     0
  9
$DIMFIT
 70
     5
  9
$DIMUPT
 70
     0
  9
$DIMUNIT
 70
     2
  9
$DIMDEC
 70
     2
  9
$DIMTDEC
 70
     2
  9
$DIMALTU
 70
     2
  9
$DIMALTTD
 70
     3
  9
$DIMTXSTY
  7
STANDARD
  9
$DIMAUNIT
 70
     0
  9
$LUNITS
 70
     2
  9
$LUPREC
 70
     3
  9
$SKETCHINC
 40
1.0
  9
$FILLETRAD
 40
0.0
  9
$AUNITS
 70
     0
  9
$AUPREC
 70
     0
  9
$MENU
  1
.
  9
$ELEVATION
 40
0.0
  9
$PELEVATION
 40
0.0
  9
$THICKNESS
 40
0.0
  9
$LIMCHECK
 70
     0
  9
$CHAMFERA
 40
10.0
  9
$CHAMFERB
 40
10.0
  9
$CHAMFERC
 40
20.0
  9
$CHAMFERD
 40
0.0
  9
$SKPOLY
 70
     0
  9
$TDCREATE
 40
2455022.679026158
  9
$TDUPDATE
 40
2457094.636656412
  9
$TDINDWG
 40
0.0830643287
  9
$TDUSRTIMER
 40
2457094.591698252
  9
$USRTIMER
 70
     1
  9
$ANGBASE
 50
0.0
  9
$ANGDIR
 70
     0
  9
$PDMODE
 70
     0
  9
$PDSIZE
 40
0.0
  9
$PLINEWID
 40
0.0
  9
$COORDS
 70
     2
  9
$SPLFRAME
 70
     0
  9
$SPLINETYPE
 70
     6
  9
$SPLINESEGS
 70
     8
  9
$ATTDIA
 70
     0
  9
$ATTREQ
 70
     1
  9
$HANDLING
 70
     1
  9
$HANDSEED
  5
449
  9
$SURFTAB1
 70
     6
  9
$SURFTAB2
 70
     6
  9
$SURFTYPE
 70
     6
  9
$SURFU
 70
     6
  9
$SURFV
 70
     6
  9
$UCSNAME
  2

  9
$UCSORG
 10
0.0
 20
0.0
 30
0.0
  9
$UCSXDIR
 10
1.0
 20
0.0
 30
0.0
  9
$UCSYDIR
 10
0.0
 20
1.0
 30
0.0
  9
$PUCSNAME
  2

  9
$PUCSORG
 10
0.0
 20
0.0
 30
0.0
  9
$PUCSXDIR
 10
1.0
 20
0.0
 30
0.0
  9
$PUCSYDIR
 10
0.0
 20
1.0
 30
0.0
  9
$USERI1
 70
     0
  9
$USERI2
 70
     0
  9
$USERI3
 70
     0
  9
$USERI4
 70
     0
  9
$USERI5
 70
     0
  9
$USERR1
 40
0.0
  9
$USERR2
 40
0.0
  9
$USERR3
 40
0.0
  9
$USERR4
 40
0.0
  9
$USERR5
 40
0.0
  9
$WORLDVIEW
 70
     1
  9
$SHADEDGE
 70
     3
  9
$SHADEDIF
 70
    70
  9
$TILEMODE
 70
     1
  9
$MAXACTVP
 70
    64
  9
$PINSBASE
 10
0.0
 20
0.0
 30
0.0
  9
$PLIMCHECK
 70
     0
  9
$PEXTMIN
 10
1.000000000000000E+20
 20
1.000000000000000E+20
 30
1.000000000000000E+20
  9
$PEXTMAX
 10
-1.000000000000000E+20
 20
-1.000000000000000E+20
 30
-1.000000000000000E+20
  9
$PLIMMIN
 10
0.0
 20
0.0
  9
$PLIMMAX
 10
0.0
 20
0.0
  9
$UNITMODE
 70
     0
  9
$VISRETAIN
 70
     1
  9
$PLINEGEN
 70
     0
  9
$PSLTSCALE
 70
     1
  9
$TREEDEPTH
 70
  3020
  9
$PICKSTYLE
 70
     1
  9
$CMLSTYLE
  2
STANDARD
  9
$CMLJUST
 70
     0
  9
$CMLSCALE
 40
20.0
  9
$PROXYGRAPHICS
 70
     1
  9
$MEASUREMENT
 70
     1
  0
ENDSEC
  0
SECTION
  2
CLASSES
  0
CLASS
  1
ACDBDICTIONARYWDFLT
  2
AcDbDictionaryWithDefault
  3
ObjectDBX Classes
 90
        0
280
     0
281
     0
  0
CLASS
  1
VISUALSTYLE
  2
AcDbVisualStyle
  3
ObjectDBX Classes
 90
     4095
280
     0
281
     0
  0
CLASS
  1
TABLESTYLE
  2
AcDbTableStyle
  3
ObjectDBX Classes
 90
     4095
280
     0
281
     0
  0
CLASS
  1
DICTIONARYVAR
  2
AcDbDictionaryVar
  3
ObjectDBX Classes
 90
        0
280
     0
281
     0
  0
CLASS
  1
SCALE
  2
AcDbScale
  3
ObjectDBX Classes
 90
     1153
280
     0
281
     0
  0
CLASS
  1
CELLSTYLEMAP
  2
AcDbCellStyleMap
  3
ObjectDBX Classes
 90
     1152
280
     0
281
     0
  0
CLASS
  1
RASTERVARIABLES
  2
AcDbRasterVariables
  3
ISM
 90
        0
280
     0
281
     0
  0
CLASS
  1
MATERIAL
  2
AcDbMaterial
  3
ObjectDBX Classes
 90
     1153
280
     0
281
     0
  0
CLASS
  1
SUN
  2
AcDbSun
  3
SCENEOE
 90
     1153
280
     0
281
     0
  0
CLASS
  1
MLEADERSTYLE
  2
AcDbMLeaderStyle
  3
ACDB_MLEADERSTYLE_CLASS
 90
     4095
280
     0
281
     0
  0
CLASS
  1
XRECORD
  2
AcDbXrecord
  3
ObjectDBX Classes
 90
        0
280
     0
281
     0
  0
CLASS
  1
LWPOLYLINE
  2
AcDbPolyline
  3
ObjectDBX Classes
 90
        0
280
     0
281
     1
  0
CLASS
  1
HATCH
  2
AcDbHatch
  3
ObjectDBX Classes
 90
        0
280
     0
281
     1
  0
ENDSEC
  0
SECTION
  2
TABLES
  0
TABLE
  2
VPORT
  5
8
330
0
100
AcDbSymbolTable
 70
     1
  0
VPORT
  5
29
330
8
100
AcDbSymbolTableRecord
100
AcDbViewportTableRecord
  2
*ACTIVE
 70
     0
 10
0.0
 20
0.0
 11
1.0
 21
1.0
 12
150.053204063149
 22
-1.685076933604726
 13
0.0
 23
0.0
 14
10.0
 24
10.0
 15
10.0
 25
10.0
 16
0.0
 26
0.0
 36
1.0
 17
-134.1869158878503
 27
0.0
 37
0.0
 40
41.36053506047992
 41
2.042492917847026
 42
50.0
 43
0.0
 44
0.0
 50
0.0
 51
0.0
 71
    16
 72
  1000
 73
     1
 74
     3
 75
     0
 76
     0
 77
     0
 78
     2
  0
ENDTAB
  0
TABLE
  2
LTYPE
  5
5
330
0
100
AcDbSymbolTable
 70
     1
  0
LTYPE
  5
14
330
5
100
AcDbSymbolTableRecord
100
AcDbLinetypeTableRecord
  2
BYBLOCK
 70
     0
  3

 72
    65
 73
     0
 40
0.0
  0
LTYPE
  5
15
330
5
100
AcDbSymbolTableRecord
100
AcDbLinetypeTableRecord
  2
BYLAYER
 70
     0
  3
Solid line
 72
    65
 73
     0
 40
0.0
  0
LTYPE
  5
16
330
5
100
AcDbSymbolTableRecord
100
AcDbLinetypeTableRecord
  2
CONTINUOUS
 70
     0
  3
Solid line
 72
    65
 73
     0
 40
0.0
  0
ENDTAB
  0
TABLE
  2
LAYER
  5
2
102
{ACAD_XDICTIONARY
360
EE
102
}
330
0
100
AcDbSymbolTable
 70
     5
  0
LAYER
  5
10
330
2
100
AcDbSymbolTableRecord
100
AcDbLayerTableRecord
  2
0
 70
     0
 62
     7
  6
CONTINUOUS
  0
LAYER
  5
14C
330
2
100
AcDbSymbolTableRecord
100
AcDbLayerTableRecord
  2
SECTION
 70
     0
 62
    -7
  6
CONTINUOUS
1001
ACAECLAYERSTANDARD
1000

1000

  0
LAYER
  5
14D
330
2
100
AcDbSymbolTableRecord
100
AcDbLayerTableRecord
  2
OPENING
 70
     0
 62
    -7
  6
CONTINUOUS
1001
ACAECLAYERSTANDARD
1000

1000

  0
LAYER
  5
206
330
2
100
AcDbSymbolTableRecord
100
AcDbLayerTableRecord
  2
SLOT
 70
     0
 62
    -7
  6
CONTINUOUS
1001
ACAECLAYERSTANDARD
1000

1000

  0
LAYER
  5
338
330
2
100
AcDbSymbolTableRecord
100
AcDbLayerTableRecord
  2
SECTION2
 70
     0
 62
     7
  6
CONTINUOUS
1001
ACAECLAYERSTANDARD
1000

1000

  0
ENDTAB
  0
TABLE
  2
STYLE
  5
3
330
0
100
AcDbSymbolTable
 70
     1
  0
STYLE
  5
11
330
3
100
AcDbSymbolTableRecord
100
AcDbTextStyleTableRecord
  2
STANDARD
 70
     0
 40
0.0
 41
1.0
 50
0.0
 71
     0
 42
2.5
  3
arial.ttf
  4

1001
ACAD
1000
Arial
1071
        0
  0
ENDTAB
  0
TABLE
  2
VIEW
  5
6
330
0
100
AcDbSymbolTable
 70
     0
  0
ENDTAB
  0
TABLE
  2
UCS
  5
7
330
0
100
AcDbSymbolTable
 70
     0
  0
ENDTAB
  0
TABLE
  2
APPID
  5
9
330
0
100
AcDbSymbolTable
 70
     2
  0
APPID
  5
12
330
9
100
AcDbSymbolTableRecord
100
AcDbRegAppTableRecord
  2
ACAD
 70
     0
  0
APPID
  5
BB
330
9
100
AcDbSymbolTableRecord
100
AcDbRegAppTableRecord
  2
ACAECLAYERSTANDARD
 70
     0
  0
ENDTAB
  0
TABLE
  2
DIMSTYLE
  5
A
330
0
100
AcDbSymbolTable
 70
     1
  0
DIMSTYLE
105
27
330
A
100
AcDbSymbolTableRecord
100
AcDbDimStyleTableRecord
  2
ISO-25
 70
     0
  3

  4

  5

  6

  7

 40
1.0
 41
2.5
 42
0.625
 43
3.75
 44
1.25
 45
0.0
 46
0.0
 47
0.0
 48
0.0
140
2.5
141
2.5
142
0.0
143
0.03937007874016
144
1.0
145
0.0
146
1.0
147
0.625
 71
     0
 72
     0
 73
     0
 74
     0
 75
     0
 76
     0
 77
     1
 78
     8
170
     0
171
     3
172
     1
173
     0
174
     0
175
     0
176
     0
177
     0
178
     0
270
     2
271
     2
272
     2
273
     2
274
     3
340
11
275
     0
280
     0
281
     0
282
     0
283
     0
284
     8
285
     0
286
     0
287
     3
288
     0
  0
ENDTAB
  0
TABLE
  2
BLOCK_RECORD
  5
1
330
0
100
AcDbSymbolTable
 70
     1
  0
BLOCK_RECORD
  5
1F
330
1
100
AcDbSymbolTableRecord
100
AcDbBlockTableRecord
  2
*MODEL_SPACE
  0
BLOCK_RECORD
  5
1B
330
1
100
AcDbSymbolTableRecord
100
AcDbBlockTableRecord
  2
*PAPER_SPACE
  0
BLOCK_RECORD
  5
23
330
1
100
AcDbSymbolTableRecord
100
AcDbBlockTableRecord
  2
*PAPER_SPACE0
  0
ENDTAB
  0
ENDSEC
  0
SECTION
  2
BLOCKS
  0
BLOCK
  5
20
330
1F
100
AcDbEntity
  8
0
100
AcDbBlockBegin
  2
*MODEL_SPACE
 70
     0
 10
0.0
 20
0.0
 30
0.0
  3
*MODEL_SPACE
  1

  0
ENDBLK
  5
21
330
1F
100
AcDbEntity
  8
0
100
AcDbBlockEnd
  0
BLOCK
  5
1C
330
1B
100
AcDbEntity
 67
     1
  8
0
100
AcDbBlockBegin
  2
*PAPER_SPACE
 70
     0
 10
0.0
 20
0.0
 30
0.0
  3
*PAPER_SPACE
  1

  0
ENDBLK
  5
1D
330
1B
100
AcDbEntity
 67
     1
  8
0
100
AcDbBlockEnd
  0
BLOCK
  5
24
330
23
100
AcDbEntity
  8
0
100
AcDbBlockBegin
  2
*PAPER_SPACE0
 70
     0
 10
0.0
 20
0.0
 30
0.0
  3
*PAPER_SPACE0
  1
*Paper_Space0
  0
ENDBLK
  5
25
330
23
100
AcDbEntity
  8
0
100
AcDbBlockEnd
  0
ENDSEC
  0
SECTION
  2
ENTITIES
  0
LINE
  5
186
330
1F
100
AcDbEntity
  8
OPENING
100
AcDbLine
 10
2.358578643762666
 20
-7.799999999999988
 30
0.0
 11
4.658578643762679
 21
-10.1
 31
0.0
  0
LINE
  5
187
330
1F
100
AcDbEntity
  8
OPENING
100
AcDbLine
 10
4.658578643762679
 20
-10.1
 30
0.0
 11
9.5
 21
-10.1
 31
0.0
  0
ARC
  5
188
330
1F
100
AcDbEntity
  8
OPENING
100
AcDbCircle
 10
9.5
 20
-9.5
 30
0.0
 40
0.5999999999999996
100
AcDbArc
 50
270.0
 51
0.0
  0
LINE
  5
189
330
1F
100
AcDbEntity
  8
OPENING
100
AcDbLine
 10
10.1
 20
-9.5
 30
0.0
 11
10.1
 21
-4.658578643762679
 31
0.0
  0
LINE
  5
18D
330
1F
100
AcDbEntity
  8
OPENING
100
AcDbLine
 10
10.1
 20
4.658578643762679
 30
0.0
 11
10.1
 21
9.5
 31
0.0
  0
ARC
  5
18E
330
1F
100
AcDbEntity
  8
OPENING
100
AcDbCircle
 10
9.5
 20
9.5
 30
0.0
 40
0.5999999999999996
100
AcDbArc
 50
0.0000000000000053
 51
89.99999999999999
  0
LINE
  5
18F
330
1F
100
AcDbEntity
  8
OPENING
100
AcDbLine
 10
9.5
 20
10.1
 30
0.0
 11
4.658578643762679
 21
10.1
 31
0.0
  0
LINE
  5
193
330
1F
100
AcDbEntity
  8
OPENING
100
AcDbLine
 10
-4.658578643762679
 20
10.1
 30
0.0
 11
-9.500000000000004
 21
10.1
 31
0.0
  0
ARC
  5
194
330
1F
100
AcDbEntity
  8
OPENING
100
AcDbCircle
 10
-9.500000000000002
 20
9.500000000000002
 30
0.0
 40
0.5999999999999979
100
AcDbArc
 50
90.00000000000016
 51
180.0000000000002
  0
LINE
  5
195
330
1F
100
AcDbEntity
  8
OPENING
100
AcDbLine
 10
-10.1
 20
9.5
 30
0.0
 11
-10.1
 21
4.658578643762678
 31
0.0
  0
LINE
  5
196
330
1F
100
AcDbEntity
  8
OPENING
100
AcDbLine
 10
-10.1
 20
4.658578643762678
 30
0.0
 11
-7.800000000000001
 21
2.358578643762696
 31
0.0
  0
LINE
  5
198
330
1F
100
AcDbEntity
  8
OPENING
100
AcDbLine
 10
-7.800000000000001
 20
-2.358578643762695
 30
0.0
 11
-10.1
 21
-4.658578643762678
 31
0.0
  0
LINE
  5
199
330
1F
100
AcDbEntity
  8
OPENING
100
AcDbLine
 10
-10.1
 20
-4.658578643762678
 30
0.0
 11
-10.1
 21
-9.5
 31
0.0
  0
ARC
  5
19A
330
1F
100
AcDbEntity
  8
OPENING
100
AcDbCircle
 10
-9.500000000000002
 20
-9.500000000000002
 30
0.0
 40
0.5999999999999976
100
AcDbArc
 50
179.9999999999998
 51
269.9999999999998
  0
LINE
  5
19B
330
1F
100
AcDbEntity
  8
OPENING
100
AcDbLine
 10
-9.500000000000004
 20
-10.1
 30
0.0
 11
-4.658578643762679
 21
-10.1
 31
0.0
  0
LINE
  5
19C
330
1F
100
AcDbEntity
  8
OPENING
100
AcDbLine
 10
-4.658578643762679
 20
-10.1
 30
0.0
 11
-2.358578643762668
 21
-7.799999999999988
 31
0.0
  0
LINE
  5
1BB
330
1F
100
AcDbEntity
  8
OPENING
100
AcDbLine
 10
-7.800000000000001
 20
2.358578643762696
 30
0.0
 11
-7.800000000000001
 21
-2.358578643762695
 31
0.0
  0
LINE
  5
1BC
330
1F
100
AcDbEntity
  8
OPENING
100
AcDbLine
 10
10.1
 20
4.658578643762678
 30
0.0
 11
7.800000000000001
 21
2.358578643762696
 31
0.0
  0
LINE
  5
1BD
330
1F
100
AcDbEntity
  8
OPENING
100
AcDbLine
 10
7.800000000000001
 20
-2.358578643762695
 30
0.0
 11
10.1
 21
-4.658578643762678
 31
0.0
  0
LINE
  5
1BE
330
1F
100
AcDbEntity
  8
OPENING
100
AcDbLine
 10
7.800000000000001
 20
2.358578643762696
 30
0.0
 11
7.800000000000001
 21
-2.358578643762695
 31
0.0
  0
LINE
  5
1CF
330
1F
100
AcDbEntity
  8
OPENING
100
AcDbLine
 10
2.358578643762666
 20
-7.799999999999988
 30
0.0
 11
-2.358578643762668
 21
-7.799999999999988
 31
0.0
  0
LINE
  5
1D0
330
1F
100
AcDbEntity
  8
OPENING
100
AcDbLine
 10
2.358578643762666
 20
7.799999999999989
 30
0.0
 11
4.658578643762679
 21
10.1
 31
0.0
  0
LINE
  5
1D1
330
1F
100
AcDbEntity
  8
OPENING
100
AcDbLine
 10
-4.658578643762679
 20
10.1
 30
0.0
 11
-2.358578643762668
 21
7.799999999999989
 31
0.0
  0
LINE
  5
1D2
330
1F
100
AcDbEntity
  8
OPENING
100
AcDbLine
 10
2.358578643762666
 20
7.799999999999989
 30
0.0
 11
-2.358578643762668
 21
7.799999999999989
 31
0.0
  0
LINE
  5
200
330
1F
100
AcDbEntity
  8
SLOT
100
AcDbLine
 10
2.800000000000011
 20
-1.858578643762666
 30
0.0
 11
-0.0000000000000004
 21
-4.658578643762679
 31
0.0
  0
LINE
  5
201
330
1F
100
AcDbEntity
  8
SLOT
100
AcDbLine
 10
-0.0000000000000001
 20
4.658578643762683
 30
0.0
 11
2.800000000000013
 21
1.858578643762668
 31
0.0
  0
LINE
  5
202
330
1F
100
AcDbEntity
  8
SLOT
100
AcDbLine
 10
2.800000000000011
 20
-1.858578643762666
 30
0.0
 11
2.800000000000013
 21
1.858578643762668
 31
0.0
  0
LINE
  5
203
330
1F
100
AcDbEntity
  8
SLOT
100
AcDbLine
 10
-0.0000000000000001
 20
4.658578643762683
 30
0.0
 11
-0.0000000000000004
 21
-4.658578643762679
 31
0.0
  0
LINE
  5
26D
330
1F
100
AcDbEntity
  8
SECTION
100
AcDbLine
 10
-2.839339828220176
 20
3.900000000000006
 30
0.0
 11
-5.499339828220172
 21
6.560000000000002
 31
0.0
  0
LINE
  5
26E
330
1F
100
AcDbEntity
  8
SECTION
100
AcDbLine
 10
-5.499339828220172
 20
6.560000000000002
 30
0.0
 11
-5.499339828220172
 21
8.199999999999989
 31
0.0
  0
LINE
  5
26F
330
1F
100
AcDbEntity
  8
SECTION
100
AcDbLine
 10
-5.499339828220172
 20
8.199999999999989
 30
0.0
 11
-2.899999999999977
 21
8.199999999999989
 31
0.0
  0
LINE
  5
270
330
1F
100
AcDbEntity
  8
SECTION
100
AcDbLine
 10
-2.899999999999977
 20
8.199999999999989
 30
0.0
 11
-4.699999999999989
 21
10.0
 31
0.0
  0
LINE
  5
271
330
1F
100
AcDbEntity
  8
SECTION
100
AcDbLine
 10
-4.699999999999989
 20
10.0
 30
0.0
 11
-10.0
 21
10.0
 31
0.0
  0
LINE
  5
272
330
1F
100
AcDbEntity
  8
SECTION
100
AcDbLine
 10
-10.0
 20
10.0
 30
0.0
 11
-10.0
 21
4.699999999999989
 31
0.0
  0
LINE
  5
273
330
1F
100
AcDbEntity
  8
SECTION
100
AcDbLine
 10
-10.0
 20
4.699999999999989
 30
0.0
 11
-8.199999999999989
 21
2.899999999999977
 31
0.0
  0
LINE
  5
274
330
1F
100
AcDbEntity
  8
SECTION
100
AcDbLine
 10
-8.199999999999989
 20
2.899999999999977
 30
0.0
 11
-8.199999999999989
 21
5.499339828220172
 31
0.0
  0
LINE
  5
275
330
1F
100
AcDbEntity
  8
SECTION
100
AcDbLine
 10
-8.199999999999989
 20
5.499339828220172
 30
0.0
 11
-6.560000000000002
 21
5.499339828220172
 31
0.0
  0
LINE
  5
276
330
1F
100
AcDbEntity
  8
SECTION
100
AcDbLine
 10
-6.560000000000002
 20
5.499339828220172
 30
0.0
 11
-3.900000000000006
 21
2.839339828220176
 31
0.0
  0
LINE
  5
277
330
1F
100
AcDbEntity
  8
SECTION
100
AcDbLine
 10
-3.900000000000006
 20
2.839339828220176
 30
0.0
 11
-3.900000000000006
 21
-2.839339828220176
 31
0.0
  0
LINE
  5
278
330
1F
100
AcDbEntity
  8
SECTION
100
AcDbLine
 10
-3.900000000000006
 20
-2.839339828220176
 30
0.0
 11
-6.560000000000002
 21
-5.499339828220172
 31
0.0
  0
LINE
  5
279
330
1F
100
AcDbEntity
  8
SECTION
100
AcDbLine
 10
-6.560000000000002
 20
-5.499339828220172
 30
0.0
 11
-8.199999999999989
 21
-5.499339828220172
 31
0.0
  0
LINE
  5
27A
330
1F
100
AcDbEntity
  8
SECTION
100
AcDbLine
 10
-8.199999999999989
 20
-5.499339828220172
 30
0.0
 11
-8.199999999999989
 21
-2.899999999999977
 31
0.0
  0
LINE
  5
27B
330
1F
100
AcDbEntity
  8
SECTION
100
AcDbLine
 10
-8.199999999999989
 20
-2.899999999999977
 30
0.0
 11
-10.0
 21
-4.699999999999989
 31
0.0
  0
LINE
  5
27C
330
1F
100
AcDbEntity
  8
SECTION
100
AcDbLine
 10
-10.0
 20
-4.699999999999989
 30
0.0
 11
-10.0
 21
-10.0
 31
0.0
  0
LINE
  5
27D
330
1F
100
AcDbEntity
  8
SECTION
100
AcDbLine
 10
-10.0
 20
-10.0
 30
0.0
 11
-4.699999999999989
 21
-10.0
 31
0.0
  0
LINE
  5
27E
330
1F
100
AcDbEntity
  8
SECTION
100
AcDbLine
 10
-4.699999999999989
 20
-10.0
 30
0.0
 11
-2.899999999999977
 21
-8.199999999999989
 31
0.0
  0
LINE
  5
27F
330
1F
100
AcDbEntity
  8
SECTION
100
AcDbLine
 10
-2.899999999999977
 20
-8.199999999999989
 30
0.0
 11
-5.499339828220172
 21
-8.199999999999989
 31
0.0
  0
LINE
  5
280
330
1F
100
AcDbEntity
  8
SECTION
100
AcDbLine
 10
-5.499339828220172
 20
-8.199999999999989
 30
0.0
 11
-5.499339828220172
 21
-6.560000000000002
 31
0.0
  0
LINE
  5
281
330
1F
100
AcDbEntity
  8
SECTION
100
AcDbLine
 10
-5.499339828220172
 20
-6.560000000000002
 30
0.0
 11
-2.839339828220176
 21
-3.900000000000006
 31
0.0
  0
LINE
  5
282
330
1F
100
AcDbEntity
  8
SECTION
100
AcDbLine
 10
-2.839339828220176
 20
-3.900000000000006
 30
0.0
 11
2.839339828220176
 21
-3.900000000000006
 31
0.0
  0
LINE
  5
283
330
1F
100
AcDbEntity
  8
SECTION
100
AcDbLine
 10
2.839339828220176
 20
-3.900000000000006
 30
0.0
 11
5.499339828220172
 21
-6.560000000000002
 31
0.0
  0
LINE
  5
284
330
1F
100
AcDbEntity
  8
SECTION
100
AcDbLine
 10
5.499339828220172
 20
-6.560000000000002
 30
0.0
 11
5.499339828220172
 21
-8.199999999999989
 31
0.0
  0
LINE
  5
285
330
1F
100
AcDbEntity
  8
SECTION
100
AcDbLine
 10
5.499339828220172
 20
-8.199999999999989
 30
0.0
 11
2.899999999999977
 21
-8.199999999999989
 31
0.0
  0
LINE
  5
286
330
1F
100
AcDbEntity
  8
SECTION
100
AcDbLine
 10
2.899999999999977
 20
-8.199999999999989
 30
0.0
 11
4.699999999999989
 21
-10.0
 31
0.0
  0
LINE
  5
287
330
1F
100
AcDbEntity
  8
SECTION
100
AcDbLine
 10
4.699999999999989
 20
-10.0
 30
0.0
 11
10.0
 21
-10.00000000000005
 31
0.0
  0
LINE
  5
288
330
1F
100
AcDbEntity
  8
SECTION
100
AcDbLine
 10
10.0
 20
-10.00000000000005
 30
0.0
 11
10.0
 21
-4.699999999999989
 31
0.0
  0
LINE
  5
289
330
1F
100
AcDbEntity
  8
SECTION
100
AcDbLine
 10
10.0
 20
-4.699999999999989
 30
0.0
 11
8.199999999999989
 21
-2.899999999999977
 31
0.0
  0
LINE
  5
28A
330
1F
100
AcDbEntity
  8
SECTION
100
AcDbLine
 10
8.199999999999989
 20
-2.899999999999977
 30
0.0
 11
8.199999999999989
 21
-5.499339828220172
 31
0.0
  0
LINE
  5
28B
330
1F
100
AcDbEntity
  8
SECTION
100
AcDbLine
 10
8.199999999999989
 20
-5.499339828220172
 30
0.0
 11
6.560000000000002
 21
-5.499339828220172
 31
0.0
  0
LINE
  5
28C
330
1F
100
AcDbEntity
  8
SECTION
100
AcDbLine
 10
6.560000000000002
 20
-5.499339828220172
 30
0.0
 11
3.900000000000006
 21
-2.839339828220176
 31
0.0
  0
LINE
  5
28D
330
1F
100
AcDbEntity
  8
SECTION
100
AcDbLine
 10
3.900000000000006
 20
-2.839339828220176
 30
0.0
 11
3.900000000000006
 21
2.839339828220176
 31
0.0
  0
LINE
  5
28E
330
1F
100
AcDbEntity
  8
SECTION
100
AcDbLine
 10
3.900000000000006
 20
2.839339828220176
 30
0.0
 11
6.560000000000002
 21
5.499339828220172
 31
0.0
  0
LINE
  5
28F
330
1F
100
AcDbEntity
  8
SECTION
100
AcDbLine
 10
6.560000000000002
 20
5.499339828220172
 30
0.0
 11
8.199999999999989
 21
5.499339828220172
 31
0.0
  0
LINE
  5
290
330
1F
100
AcDbEntity
  8
SECTION
100
AcDbLine
 10
8.199999999999989
 20
5.499339828220172
 30
0.0
 11
8.199999999999989
 21
2.899999999999977
 31
0.0
  0
LINE
  5
291
330
1F
100
AcDbEntity
  8
SECTION
100
AcDbLine
 10
8.199999999999989
 20
2.899999999999977
 30
0.0
 11
10.0
 21
4.699999999999989
 31
0.0
  0
LINE
  5
292
330
1F
100
AcDbEntity
  8
SECTION
100
AcDbLine
 10
10.0
 20
4.699999999999989
 30
0.0
 11
10.0
 21
10.0
 31
0.0
  0
LINE
  5
293
330
1F
100
AcDbEntity
  8
SECTION
100
AcDbLine
 10
10.0
 20
10.0
 30
0.0
 11
4.699999999999989
 21
10.0
 31
0.0
  0
LINE
  5
294
330
1F
100
AcDbEntity
  8
SECTION
100
AcDbLine
 10
4.699999999999989
 20
10.0
 30
0.0
 11
2.899999999999977
 21
8.199999999999989
 31
0.0
  0
LINE
  5
295
330
1F
100
AcDbEntity
  8
SECTION
100
AcDbLine
 10
2.899999999999977
 20
8.199999999999989
 30
0.0
 11
5.499339828220172
 21
8.199999999999989
 31
0.0
  0
LINE
  5
296
330
1F
100
AcDbEntity
  8
SECTION
100
AcDbLine
 10
5.499339828220172
 20
8.199999999999989
 30
0.0
 11
5.499339828220172
 21
6.560000000000002
 31
0.0
  0
LINE
  5
297
330
1F
100
AcDbEntity
  8
SECTION
100
AcDbLine
 10
5.499339828220172
 20
6.560000000000002
 30
0.0
 11
2.839339828220176
 21
3.900000000000006
 31
0.0
  0
LINE
  5
298
330
1F
100
AcDbEntity
  8
SECTION
100
AcDbLine
 10
2.839339828220176
 20
3.900000000000006
 30
0.0
 11
-2.839339828220176
 21
3.900000000000006
 31
0.0
  0
LWPOLYLINE
  5
3ED
330
1F
100
AcDbEntity
  8
SECTION2
100
AcDbPolyline
 90
       64
 70
     1
 43
0.0
 10
-20.0
 20
10.0
 10
-20.0
 20
4.699999999999989
 10
-18.19999999999999
 20
2.899999999999977
 10
-18.19999999999999
 20
5.499339828220172
 10
-16.56
 20
5.499339828220172
 10
-13.90000000000001
 20
2.839339828220176
 10
-13.90000000000001
 20
-2.839339828220176
 10
-16.56
 20
-5.499339828220172
 10
-18.19999999999999
 20
-5.499339828220172
 10
-18.19999999999999
 20
-2.899999999999977
 10
-20.0
 20
-4.699999999999989
 10
-20.0
 20
-10.0
 10
-14.69999999999999
 20
-10.0
 10
-12.89999999999998
 20
-8.199999999999989
 10
-15.49933982822017
 20
-8.199999999999989
 10
-15.49933982822017
 20
-6.560000000000002
 10
-12.83933982822018
 20
-3.900000000000006
 10
-7.160660171779824
 20
-3.900000000000006
 10
-4.500660171779828
 20
-6.560000000000002
 10
-4.500660171779828
 20
-8.199999999999989
 10
-7.100000000000023
 20
-8.199999999999989
 10
-5.300000000000011
 20
-10.0
 10
5.300000000000011
 20
-10.0
 10
7.100000000000023
 20
-8.199999999999989
 10
4.500660171779828
 20
-8.199999999999989
 10
4.500660171779828
 20
-6.560000000000002
 10
7.160660171779824
 20
-3.900000000000006
 10
12.83933982822018
 20
-3.900000000000006
 10
15.49933982822017
 20
-6.560000000000002
 10
15.49933982822017
 20
-8.199999999999989
 10
12.89999999999998
 20
-8.199999999999989
 10
14.69999999999999
 20
-10.0
 10
20.0
 20
-10.0
 10
20.0
 20
-4.699999999999989
 10
18.19999999999999
 20
-2.899999999999977
 10
18.19999999999999
 20
-5.499339828220172
 10
16.56
 20
-5.499339828220172
 10
13.90000000000001
 20
-2.839339828220176
 10
13.90000000000001
 20
2.839339828220176
 10
16.56
 20
5.499339828220172
 10
18.19999999999999
 20
5.499339828220172
 10
18.19999999999999
 20
2.899999999999977
 10
20.0
 20
4.699999999999989
 10
20.0
 20
10.0
 10
14.69999999999999
 20
10.0
 10
12.89999999999998
 20
8.199999999999989
 10
15.49933982822017
 20
8.199999999999989
 10
15.49933982822017
 20
6.560000000000002
 10
12.83933982822018
 20
3.900000000000006
 10
7.160660171779824
 20
3.900000000000006
 10
4.500660171779828
 20
6.560000000000002
 10
4.500660171779828
 20
8.199999999999989
 10
7.100000000000023
 20
8.199999999999989
 10
5.300000000000011
 20
10.0
 10
-5.300000000000011
 20
10.0
 10
-7.100000000000023
 20
8.199999999999989
 10
-4.500660171779828
 20
8.199999999999989
 10
-4.500660171779828
 20
6.560000000000002
 10
-7.160660171779824
 20
3.900000000000006
 10
-12.83933982822018
 20
3.900000000000006
 10
-15.49933982822017
 20
6.560000000000002
 10
-15.49933982822017
 20
8.199999999999989
 10
-12.89999999999998
 20
8.199999999999989
 10
-14.69999999999999
 20
10.0
  0
LINE
  5
439
330
1F
100
AcDbEntity
  8
SECTION2
100
AcDbLine
 10
-6.099999999999994
 20
-2.839339828220176
 30
0.0
 11
-3.000660171779826
 21
-5.938679656440344
 31
0.0
  0
LWPOLYLINE
  5
43D
330
1F
100
AcDbEntity
  8
SECTION2
100
AcDbPolyline
 90
       12
 70
     1
 43
0.0
 10
-3.000660171779828
 20
8.199999999999989
 10
-3.000660171779826
 20
5.938679656440344
 10
-6.099999999999994
 20
2.839339828220176
 10
-6.099999999999994
 20
-2.839339828220176
 10
-3.000660171779826
 20
-5.938679656440344
 10
-3.000660171779828
 20
-8.199999999999989
 10
3.000660171779828
 20
-8.199999999999989
 10
3.000660171779826
 20
-5.938679656440344
 10
6.099999999999994
 20
-2.839339828220176
 10
6.099999999999994
 20
2.839339828220176
 10
3.000660171779826
 20
5.938679656440344
 10
3.000660171779828
 20
8.199999999999989
  0
ENDSEC
  0
SECTION
  2
OBJECTS
  0
DICTIONARY
  5
C
330
0
100
AcDbDictionary
  3
ACAD_DETAILVIEWSTYLE
350
B5
  3
ACAD_GROUP
350
D
  3
ACAD_IMAGE_VARS
350
6A
  3
ACAD_MLINESTYLE
350
17
  3
ACAD_SCALELIST
350
3EF
  3
ACAD_SECTIONVIEWSTYLE
350
B6
  3
ACDBVARIABLEDICTIONARY
350
3D
  3
APPDATA
350
71
  3
DWGPROPS
350
448
  0
DICTIONARY
  5
EE
330
2
100
AcDbDictionary
280
     1
  3
ACAD_LAYERSTATES
360
EF
  3
ACLYDICTIONARY
360
447
  0
DICTIONARY
  5
B5
102
{ACAD_REACTORS
330
C
102
}
330
C
100
AcDbDictionary
  0
DICTIONARY
  5
D
102
{ACAD_REACTORS
330
C
102
}
330
C
100
AcDbDictionary
  0
RASTERVARIABLES
  5
6A
102
{ACAD_REACTORS
330
C
102
}
330
C
100
AcDbRasterVariables
 90
        0
 70
     1
 71
     1
 72
     1
  0
DICTIONARY
  5
17
102
{ACAD_REACTORS
330
C
102
}
330
C
100
AcDbDictionary
  3
STANDARD
350
18
  0
DICTIONARY
  5
3EF
102
{ACAD_REACTORS
330
C
102
}
330
C
100
AcDbDictionary
  0
DICTIONARY
  5
B6
102
{ACAD_REACTORS
330
C
102
}
330
C
100
AcDbDictionary
  0
DICTIONARY
  5
3D
102
{ACAD_REACTORS
330
C
102
}
330
C
100
AcDbDictionary
  0
DICTIONARY
  5
71
102
{ACAD_REACTORS
330
C
102
}
330
C
100
AcDbDictionary
  0
XRECORD
  5
448
102
{ACAD_REACTORS
330
C
102
}
330
C
100
AcDbXrecord
  1
DWGPROPS COOKIE
  2

  3

  4

  6

  7

  8
moimeme
  9

300
=
301
=
302
=
303
=
304
=
305
=
306
=
307
=
308
=
309
=
 40
0.0
 41
2455022.637359491
 42
2457094.594989745
  1

 90
        0
  0
DICTIONARY
  5
EF
102
{ACAD_REACTORS
330
EE
102
}
330
EE
100
AcDbDictionary
  0
DICTIONARY
  5
447
102
{ACAD_REACTORS
330
EE
102
}
330
EE
100
AcDbDictionary
1001
ACAD
1000
<All
  0
MLINESTYLE
  5
18
102
{ACAD_REACTORS
330
17
102
}
330
17
100
AcDbMlineStyle
  2
Standard
 70
     0
  3

 62
   256
 51
90.0
 52
90.0
 71
     2
 49
0.5
 62
   256
  6
BYLAYER
 49
-0.5
 62
   256
  6
BYLAYER
  0
ENDSEC
  0
EOF
